<?xml version="1.0" encoding="UTF-8"?>
<svg xmlns="http://www.w3.org/2000/svg" fill="#7bc391" viewBox="0 0 74 74" width="512" height="512"><g id="Numbers"><text transform="translate(26.989 -265.877)" font-size="18" fill="red" font-family="ArialMT, Arial">10<tspan x="0" y="124">20</tspan><tspan x="0" y="248">30</tspan><tspan x="0" y="372">40</tspan><tspan x="0" y="496">50</tspan><tspan x="0" y="620">60</tspan><tspan x="0" y="744">70</tspan><tspan x="0" y="868">80</tspan><tspan x="0" y="992">90</tspan><tspan x="-5.005" y="1116">100</tspan><tspan x="-4.337" y="1240" letter-spacing="-0.074em">1</tspan><tspan x="4.337" y="1240">10</tspan><tspan x="-5.005" y="1364">120</tspan><tspan x="-5.005" y="1488">130</tspan><tspan x="-5.005" y="1612">140</tspan><tspan x="-5.005" y="1736">150</tspan><tspan x="-5.005" y="1860">160</tspan><tspan x="-5.005" y="1984">170</tspan><tspan x="-5.005" y="2108">180</tspan><tspan x="-5.005" y="2232">190</tspan><tspan x="-5.005" y="2356">200</tspan><tspan x="-5.005" y="2480">210</tspan><tspan x="-5.005" y="2604">220</tspan><tspan x="-5.005" y="2728">230</tspan><tspan x="-5.005" y="2852">240</tspan><tspan x="-5.005" y="2976">250</tspan><tspan x="-5.005" y="3100">260</tspan><tspan x="-5.005" y="3224">270</tspan><tspan x="-5.005" y="3348">280</tspan><tspan x="-5.005" y="3472">290</tspan><tspan x="-5.005" y="3596">300</tspan></text></g><g id="Icons"><path d="M38.71,59h-2.9a1,1,0,0,1,0-2h2.9a1,1,0,1,1,0,2Z"/><path d="M69,59H55.68a1,1,0,0,1,0-2H69a1,1,0,0,0,1-1V18a1,1,0,0,0-1-1H5a1,1,0,0,0-1,1V56a1,1,0,0,0,1,1H28.81a1,1,0,1,1,0,2H5a3,3,0,0,1-3-3V18a3,3,0,0,1,3-3H69a3,3,0,0,1,3,3V56A3,3,0,0,1,69,59Z"/><path d="M48.68,59H45.71a1,1,0,0,1,0-2h2.97a1,1,0,1,1,0,2Z"/><path d="M58.583,54H15.417a1,1,0,0,1-1-1A6.425,6.425,0,0,0,8,46.583a1,1,0,0,1-1-1V28.417a1,1,0,0,1,1-1A6.425,6.425,0,0,0,14.417,21a1,1,0,0,1,1-1H58.583a1,1,0,0,1,1,1A6.425,6.425,0,0,0,66,27.417a1,1,0,0,1,1,1V45.583a1,1,0,0,1-1,1A6.425,6.425,0,0,0,59.583,53,1,1,0,0,1,58.583,54ZM16.358,52H57.642A8.432,8.432,0,0,1,65,44.643V29.357A8.432,8.432,0,0,1,57.642,22H16.358A8.432,8.432,0,0,1,9,29.357V44.643A8.432,8.432,0,0,1,16.358,52Z"/><path d="M37,48A11,11,0,1,1,48,37,11.013,11.013,0,0,1,37,48Zm0-20a9,9,0,1,0,9,9A9.01,9.01,0,0,0,37,28Z"/><path d="M37,38a3.5,3.5,0,1,1,3.5-3.5,1,1,0,0,1-2,0A1.5,1.5,0,1,0,37,36a1,1,0,0,1,0,2Z"/><path d="M37,43a3.5,3.5,0,0,1-3.5-3.5,1,1,0,0,1,2,0A1.5,1.5,0,1,0,37,38a1,1,0,0,1,0-2,3.5,3.5,0,0,1,0,7Z"/><path d="M37,44.27a1,1,0,0,1-1-1V42a1,1,0,0,1,2,0v1.27A1,1,0,0,1,37,44.27Z"/><path d="M37,33a1,1,0,0,1-1-1V30.73a1,1,0,0,1,2,0V32A1,1,0,0,1,37,33Z"/><path d="M56.375,40.875A3.875,3.875,0,1,1,60.25,37,3.879,3.879,0,0,1,56.375,40.875Zm0-5.75A1.875,1.875,0,1,0,58.25,37,1.877,1.877,0,0,0,56.375,35.125Z"/><path d="M17.625,40.875A3.875,3.875,0,1,1,21.5,37,3.879,3.879,0,0,1,17.625,40.875Zm0-5.75A1.875,1.875,0,1,0,19.5,37,1.877,1.877,0,0,0,17.625,35.125Z"/></g></svg>
